<svg width="126" height="92" viewBox="0 0 126 92" fill="none" xmlns="http://www.w3.org/2000/svg">
<g clip-path="url(#clip0_1421_2837)">
<path d="M69.3996 39.1648H51.6611V56.9033H69.3996V39.1648Z" fill="#00A0E9"/>
<path d="M125.869 60.4807C125.869 60.4807 126.305 75.3208 111.64 85.8309C98.4451 68.6229 97.4082 66.7345 97.4082 66.7345L106.594 54.2454L125.869 60.4807Z" fill="#0081CC"/>
<path d="M78.4565 59.8894C77.2117 63.5163 77.8511 67.4742 78.1453 71.2977C78.6307 77.6356 77.9808 85.3085 76.5 91.49C83.6892 91.49 96.7381 91.5097 97 91.49C97.7723 91.432 99.3452 91.2585 99.6847 90.8129C100.024 90.3674 100.065 89.769 100.092 89.2102C100.564 79.2706 100.684 69.3216 100.453 59.3632C100.443 58.9232 100.415 58.438 100.109 58.1198C99.771 57.7675 99.2236 57.7491 98.737 57.7619C92.1664 57.9514 85.0201 59.0831 78.4565 59.8894Z" fill="#54C3F1"/>
<path d="M12.9861 65.0993C13.6071 64.9904 14.2833 64.8899 14.8378 65.1898C15.2961 65.4373 15.5762 65.9126 15.8365 66.3653L23.3887 79.5617L16.2863 87.5511C16.0189 87.8524 15.7275 88.1678 15.3371 88.2711C14.9467 88.3743 14.5365 88.24 14.1574 88.0985C6.71822 85.3118 2.46325 81.1955 0.6215 74.6701C-2.1581 64.8475 5.58799 66.3992 12.9861 65.0993Z" fill="#0081CC"/>
<path d="M42.3302 43.656L44.0786 63.8587L32.0379 75.8626C31.8668 76.0351 31.673 76.2162 31.4311 76.2332C31.0704 76.2586 30.803 75.9206 30.605 75.6178C25.7446 68.1971 20.9238 60.7113 16.4594 53.043C13.4959 47.9506 13.1975 47.9251 18.8812 45.8882C30.9643 41.5582 42.3302 43.656 42.3302 43.656Z" fill="#0081CC"/>
<path d="M22.5335 29.1851C22.6113 28.7749 61.8581 28.3208 61.8581 28.3208L52.1699 49.6551L23.2083 46.3889C21.5702 41.2258 21.8121 33.01 22.5335 29.1851Z" fill="#036EB8"/>
<path d="M69.0459 63.0283L70.4265 46.7383L116.047 55.4392L101.975 76.6547L89.0095 66.965L69.0459 63.0283Z" fill="#00AFEC"/>
<path d="M29.8522 14.0182C37.3069 17.2349 57.8873 37.7827 57.8873 37.7827L31.032 42.6176L22.5234 30.1356C22.5234 30.1356 22.5234 22.9101 29.8522 14.0182Z" fill="#0097E0"/>
<path d="M82.9365 42.223L98.9507 33.6069L123.772 63.7525L101.278 62.3747L82.9365 42.223Z" fill="#00ABEB"/>
<path d="M94.3477 12.1327V11.9912C114.359 11.9912 114.784 38.7984 114.784 38.7984L101.467 42.6177L91.4238 39.3982C91.4238 39.3982 94.1879 19.5817 94.3477 12.1327Z" fill="#0081CC"/>
<path d="M70.909 20.6073C70.5752 20.8025 70.2173 21.0316 70.0928 21.3909C69.9514 21.7997 70.1494 22.2397 70.3446 22.623C74.2856 30.3818 79.163 39.1733 79.163 39.1733L107.1 42.8738C107.1 42.8738 99.5806 19.5902 95.6736 13.0833C95.2054 12.301 94.5717 12.0818 93.6621 12.0181C92.2108 11.9177 92.4527 12.0605 90.8161 12.0959C87.854 12.1624 85.4012 12.7763 82.7743 13.6519C78.7428 15.0014 74.5798 18.4529 70.909 20.6073Z" fill="#036EB8"/>
<path d="M37.0491 6.91431L50.8481 29.1851L32.4377 33.607C32.4377 33.607 27.6834 24.4817 25.9873 20.4841C27.433 15.2093 37.0491 6.91431 37.0491 6.91431Z" fill="#0081CC"/>
<path d="M57.888 29.6293L45.0665 30.6563L36.7051 7.19728C36.7051 7.19728 49.1305 -2.90829 65.3356 0.831787L57.888 29.6293Z" fill="#036EB8"/>
<path d="M86.0235 13.7862C86.2399 14.0691 83.1505 33.2547 83.1505 33.2547L44.0791 41.2597C44.0791 41.2597 60.2574 7.28914 64.3964 0.722778C67.4476 1.03539 78.7541 4.21672 86.0235 13.7862Z" fill="#0081CC"/>
<path d="M7.2334 84.4135C14.3062 89.694 17.5005 91.7273 30.9611 91.4354V90.5187C29.1477 86.6089 27.8491 76.4991 23.0198 75.9488C19.424 75.5287 9.10344 85.514 7.2334 84.4135Z" fill="#0097E0"/>
<path d="M16.2092 47.2009C6.66382 49.6622 -0.568776 61.7708 0.0352391 69.4533C0.31815 73.0462 23.845 81.8688 23.845 81.8688L34.5461 65.8914C34.5461 65.8914 17.1881 46.9406 16.2092 47.2009Z" fill="#036EB8"/>
<path d="M89.0098 65.2307L106.833 61.8485L114.961 61.6971C114.961 61.6971 113.747 84.2678 113.561 84.4149C104.863 91.226 96.7983 91.4899 96.7983 91.4899L89.0098 65.2307Z" fill="#00ABEB"/>
<path d="M125.507 64.5263L106.508 62.1357L101.467 42.6247L113.564 33.6069C113.564 33.6069 128.912 44.6334 125.507 64.5263Z" fill="#0097E0"/>
<path d="M54.4305 37.2764L66.1387 69.9766H33.5898V39.1648L54.4305 37.2764Z" fill="#00B9EF"/>
<path d="M57.8884 29.5472L70.2629 48.6805L53.0478 63.2278L49.1309 49.1289L57.8884 29.5472Z" fill="#7ECEF4"/>
<path d="M61.8585 91.4339L60.5303 74.4522L78.597 64.2136L85.1761 91.4933L61.8585 91.4339Z" fill="#7ECEF4"/>
<path d="M25.9867 57.5483L36.7048 52.5833L59.8907 85.0501L26.4464 90.7225L22.5225 74.7903L25.9867 57.5483Z" fill="#00ABEB"/>
<path d="M76.2345 23.0629L95.1966 41.8085L70.4263 58.6757L57.8877 29.5472L76.2345 23.0629Z" fill="#00B9EF"/>
<path d="M63.2516 42.0095L85.1758 39.1648L94.5684 50.1672L89.0093 65.2308L56.7051 69.4603L63.2516 42.0095Z" fill="#BAE3F9"/>
<path d="M61.8587 55.7858L74.3534 83.8859L49.4233 91.4401L36.7051 52.5833L61.8587 55.7858Z" fill="#54C3F1"/>
<path d="M30.9648 90.9969L37.7646 91.2798C53.2936 91.598 54.032 91.3137 67.4038 91.4382L57.8881 74.7946C57.8881 74.7946 34.6002 88.4917 30.9648 90.9969Z" fill="#00ABEB"/>
<path d="M52.8434 69.9766L35.0737 63.7526L19.1006 76.2346L26.2469 91.44H49.423L52.8434 69.9766Z" fill="#00B9EF"/>
<path d="M35.0742 63.7526L55.1524 69.3754L60.921 80.225L47.5039 83.1122L35.0742 63.7526Z" fill="#9FD9F6"/>
<path d="M61.8587 55.7858L88.0775 58.5456L89.0097 71.5241L59.6973 69.6555L61.8587 55.7858Z" fill="#9FD9F6"/>
<path d="M88.6052 56.8594L94.5689 50.1671L106.832 61.8471L86.7012 68.4233L88.6052 56.8594Z" fill="#7ECEF4"/>
<path d="M86.7012 68.4233L105.689 60.7593L109.767 62.8953L92.2788 76.2345L86.7012 68.4233Z" fill="#00B9EF"/>
</g>
<defs>
<clipPath id="clip0_1421_2837">
<rect width="126" height="91.8173" fill="white"/>
</clipPath>
</defs>
</svg>
